0
SECTION
2
HEADER
9
$INSUNITS
70
4
9
$ACADVER
1
AC1014
9
$HANDSEED
5
FFFF
0
ENDSEC
0
SECTION
2
TABLES
0
TABLE
2
VPORT
5
8
100
AcDbSymbolTable
0
ENDTAB
0
TABLE
2
LTYPE
5
5
100
AcDbSymbolTable
0
LTYPE
5
14
100
AcDbSymbolTableRecord
100
AcDbLinetypeTableRecord
2
BYBLOCK
70
0
0
LTYPE
5
15
100
AcDbSymbolTableRecord
100
AcDbLinetypeTableRecord
2
BYLAYER
70
0
0
LTYPE
5
16
100
AcDbSymbolTableRecord
100
AcDbLinetypeTableRecord
2
DASHED
70
0
3
Dashed __ __ __ __ __ __ __ __ __ __ __ __ __ _
72
65
73
2
40
0.75
49
0.5
74
0
49
-0.25
74
0
0
ENDTAB
0
TABLE
2
LAYER
5
2
100
AcDbSymbolTable
70
2
0
LAYER
5
50
100
AcDbSymbolTableRecord
100
AcDbLayerTableRecord
2
0
70
0
62
7
6
CONTINUOUS
0
ENDTAB
0
TABLE
2
STYLE
5
3
100
AcDbSymbolTable
70
1
0
STYLE
5
11
100
AcDbSymbolTableRecord
100
AcDbTextStyleTableRecord
2
STANDARD
70
0
0
ENDTAB
0
TABLE
2
VIEW
5
6
100
AcDbSymbolTable
70
0
0
ENDTAB
0
TABLE
2
UCS
5
7
100
AcDbSymbolTable
70
0
0
ENDTAB
0
TABLE
2
APPID
5
9
100
AcDbSymbolTable
70
2
0
APPID
5
12
100
AcDbSymbolTableRecord
100
AcDbRegAppTableRecord
2
ACAD
70
0
0
ENDTAB
0
TABLE
2
DIMSTYLE
5
A
100
AcDbSymbolTable
70
1
0
ENDTAB
0
TABLE
2
BLOCK_RECORD
5
1
100
AcDbSymbolTable
70
1
0
BLOCK_RECORD
5
1F
100
AcDbSymbolTableRecord
100
AcDbBlockTableRecord
2
*MODEL_SPACE
0
BLOCK_RECORD
5
1B
100
AcDbSymbolTableRecord
100
AcDbBlockTableRecord
2
*PAPER_SPACE
0
ENDTAB
0
ENDSEC
0
SECTION
2
BLOCKS
0
BLOCK
5
20
100
AcDbEntity
100
AcDbBlockBegin
2
*MODEL_SPACE
0
ENDBLK
5
21
100
AcDbEntity
100
AcDbBlockEnd
0
BLOCK
5
1C
100
AcDbEntity
100
AcDbBlockBegin
2
*PAPER_SPACE
0
ENDBLK
5
1D
100
AcDbEntity
100
AcDbBlockEnd
0
ENDSEC
0
SECTION
2
ENTITIES
0
POINT
5
100
100
AcDbEntity
8
0
100
AcDbPoint
10
-234.50000000000003
20
-4.9999999999999032
30
0
0
CIRCLE
5
101
100
AcDbEntity
8
0
100
AcDbCircle
10
-269.40000000000003
20
-43.25
30
0
40
0.74999999999999289
210
0
220
-0
230
1
0
CIRCLE
5
102
100
AcDbEntity
8
0
100
AcDbCircle
10
-289.14999999999998
20
-83.25
30
0
40
0.74999999999999289
210
0
220
-0
230
1
0
CIRCLE
5
103
100
AcDbEntity
8
0
100
AcDbCircle
10
-150.95000000000002
20
-103.25
30
0
40
0.74999999999999289
210
0
220
-0
230
1
0
CIRCLE
5
104
100
AcDbEntity
8
0
100
AcDbCircle
10
-144.375
20
-7.7499999999999769
30
0
40
1.5000000000000036
210
0
220
-0
230
1
0
CIRCLE
5
105
100
AcDbEntity
8
0
100
AcDbCircle
10
-124.65000000000005
20
-43.25
30
0
40
0.74999999999999289
210
0
220
-0
230
1
0
CIRCLE
5
106
100
AcDbEntity
8
0
100
AcDbCircle
10
-244.35185397083686
20
-215.87155086838214
30
0
40
1.875
210
0
220
-0
230
1
0
CIRCLE
5
107
100
AcDbEntity
8
0
100
AcDbCircle
10
-206.90000000000003
20
-43.25
30
0
40
0.74999999999999289
210
0
220
-0
230
1
0
CIRCLE
5
108
100
AcDbEntity
8
0
100
AcDbCircle
10
-229.94999999999999
20
-154.85000000000008
30
0
40
1.9000000000000128
210
0
220
-0
230
1
0
CIRCLE
5
109
100
AcDbEntity
8
0
100
AcDbCircle
10
-138.09999999999999
20
-162.40000000000006
30
0
40
2.2000000000000064
210
0
220
-0
230
1
0
CIRCLE
5
110
100
AcDbEntity
8
0
100
AcDbCircle
10
-104.90000000000002
20
-83.25
30
0
40
0.74999999999999289
210
0
220
-0
230
1
0
LWPOLYLINE
5
111
100
AcDbEntity
8
0
100
AcDbPolyline
90
10
70
1
43
0.0
10
-248.00000000000006
20
-17.749999999999989
42
0.41421356237309509
10
-250.00000000000003
20
-19.749999999999982
10
-250.00000000000003
20
-26.75
42
0.41421356237309509
10
-248.00000000000006
20
-28.749999999999993
10
-220.5
20
-28.749999999999993
42
0.41421356237309509
10
-218.5
20
-26.749999999999986
10
-218.5
20
-19.750000000000124
42
0.41421356237309509
10
-220.50000000000014
20
-17.749999999999989
10
-231.75779214350004
20
-17.749999999999989
42
-0.53366335256957853
10
-236.7422078564999
20
-17.749999999999989
0
CIRCLE
5
112
100
AcDbEntity
8
0
100
AcDbCircle
10
-226.65000000000006
20
-43.25
30
0
40
0.74999999999999289
210
0
220
-0
230
1
0
CIRCLE
5
113
100
AcDbEntity
8
0
100
AcDbCircle
10
-224.09999999999999
20
-133.99999999999994
30
0
40
0.89999999999999858
210
0
220
-0
230
1
0
CIRCLE
5
114
100
AcDbEntity
8
0
100
AcDbCircle
10
-323.25
20
-127.75000000000003
30
0
40
2.1999999999999886
210
0
220
-0
230
1
0
CIRCLE
5
115
100
AcDbEntity
8
0
100
AcDbCircle
10
-292.45000000000005
20
-83.25
30
0
40
0.74999999999999289
210
0
220
-0
230
1
0
CIRCLE
5
116
100
AcDbEntity
8
0
100
AcDbCircle
10
-249.26706277460596
20
-215.003666996341
30
0
40
1.4999999999999858
210
0
220
-0
230
1
0
CIRCLE
5
117
100
AcDbEntity
8
0
100
AcDbCircle
10
-234.24999999999997
20
-17.349999999999991
30
0
40
0.39999999999999147
210
0
220
-0
230
1
0
CIRCLE
5
118
100
AcDbEntity
8
0
100
AcDbCircle
10
-289.15000000000009
20
-43.25
30
0
40
0.74999999999999289
210
0
220
-0
230
1
0
CIRCLE
5
119
100
AcDbEntity
8
0
100
AcDbCircle
10
-292.45000000000005
20
-43.25
30
0
40
0.74999999999999289
210
0
220
-0
230
1
0
CIRCLE
5
120
100
AcDbEntity
8
0
100
AcDbCircle
10
-144.40000000000003
20
-83.25
30
0
40
0.74999999999999289
210
0
220
-0
230
1
0
CIRCLE
5
121
100
AcDbEntity
8
0
100
AcDbCircle
10
-190.45000000000002
20
-83.25
30
0
40
0.74999999999999289
210
0
220
-0
230
1
0
CIRCLE
5
122
100
AcDbEntity
8
0
100
AcDbCircle
10
-187.15000000000003
20
-83.25
30
0
40
0.74999999999999289
210
0
220
-0
230
1
0
CIRCLE
5
123
100
AcDbEntity
8
0
100
AcDbCircle
10
-272.70000000000005
20
-83.25
30
0
40
0.74999999999999289
210
0
220
-0
230
1
0
CIRCLE
5
124
100
AcDbEntity
8
0
100
AcDbCircle
10
-108.20000000000002
20
-43.25
30
0
40
0.74999999999999289
210
0
220
-0
230
1
0
CIRCLE
5
125
100
AcDbEntity
8
0
100
AcDbCircle
10
-127.95000000000003
20
-43.25
30
0
40
0.74999999999999289
210
0
220
-0
230
1
0
CIRCLE
5
126
100
AcDbEntity
8
0
100
AcDbCircle
10
-147.70000000000005
20
-43.25
30
0
40
0.74999999999999289
210
0
220
-0
230
1
0
CIRCLE
5
127
100
AcDbEntity
8
0
100
AcDbCircle
10
-88.450000000000017
20
-83.25
30
0
40
0.74999999999999289
210
0
220
-0
230
1
0
CIRCLE
5
128
100
AcDbEntity
8
0
100
AcDbCircle
10
-312.20000000000005
20
-83.25
30
0
40
0.74999999999999289
210
0
220
-0
230
1
0
CIRCLE
5
129
100
AcDbEntity
8
0
100
AcDbCircle
10
-27.841832429103594
20
-181.86296296296297
30
0
40
0.625
210
0
220
-0
230
1
0
CIRCLE
5
130
100
AcDbEntity
8
0
100
AcDbCircle
10
-244.125
20
-7.7499999999999778
30
0
40
1.4999999999999858
210
0
220
-0
230
1
0
CIRCLE
5
131
100
AcDbEntity
8
0
100
AcDbCircle
10
-63.100000000000009
20
-130.99999999999994
30
0
40
0.89999999999999858
210
0
220
-0
230
1
0
CIRCLE
5
132
100
AcDbEntity
8
0
100
AcDbCircle
10
-170.69999999999999
20
-43.25
30
0
40
0.74999999999999289
210
0
220
-0
230
1
0
CIRCLE
5
133
100
AcDbEntity
8
0
100
AcDbCircle
10
-21.705555555555559
20
-166.00906419543071
30
0
40
0.625
210
0
220
-0
230
1
0
CIRCLE
5
134
100
AcDbEntity
8
0
100
AcDbCircle
10
-22.427777777777784
20
-160.05268987360301
30
0
40
0.625
210
0
220
-0
230
1
0
LWPOLYLINE
5
135
100
AcDbEntity
8
0
100
AcDbPolyline
90
10
70
1
43
0.0
10
-167.99999999999994
20
-17.749999999999993
42
0.41421356237309509
10
-170
20
-19.750000000000053
10
-170
20
-26.750000000000036
42
0.41421356237309509
10
-168.00000000000006
20
-28.749999999999993
10
-140.5
20
-28.749999999999993
42
0.41421356237309509
10
-138.5
20
-26.750000000000004
10
-138.5
20
-19.749999999999986
42
0.41421356237309509
10
-140.5
20
-17.749999999999993
10
-151.75779214350004
20
-17.749999999999993
42
-0.53366335256957997
10
-156.7422078564999
20
-17.749999999999993
0
CIRCLE
5
136
100
AcDbEntity
8
0
100
AcDbCircle
10
-154.24999999999997
20
-17.349999999999991
30
0
40
0.39999999999999147
210
0
220
-0
230
1
0
CIRCLE
5
137
100
AcDbEntity
8
0
100
AcDbCircle
10
-194.25
20
-21.799999999999997
30
0
40
0.50000000000000711
210
0
220
-0
230
1
0
CIRCLE
5
138
100
AcDbEntity
8
0
100
AcDbCircle
10
-210.10000000000002
20
-17.299999999999997
30
0
40
1.4000000000000057
210
0
220
-0
230
1
0
CIRCLE
5
139
100
AcDbEntity
8
0
100
AcDbCircle
10
-224.09999999999997
20
-162.40000000000009
30
0
40
2.1999999999999886
210
0
220
-0
230
1
0
CIRCLE
5
140
100
AcDbEntity
8
0
100
AcDbCircle
10
-20.622222222222216
20
-174.94362567817228
30
0
40
0.625
210
0
220
-0
230
1
0
CIRCLE
5
141
100
AcDbEntity
8
0
100
AcDbCircle
10
-25.676471770122419
20
-166.49054567691397
30
0
40
0.625
210
0
220
-0
230
1
0
CIRCLE
5
142
100
AcDbEntity
8
0
100
AcDbCircle
10
-229.95000000000005
20
-83.25
30
0
40
0.74999999999999289
210
0
220
-0
230
1
0
CIRCLE
5
143
100
AcDbEntity
8
0
100
AcDbCircle
10
-268.25000000000023
20
-25.099999999999973
30
0
40
2.1999999999999886
210
0
220
-0
230
1
0
CIRCLE
5
144
100
AcDbEntity
8
0
100
AcDbCircle
10
-85.15000000000002
20
-83.25
30
0
40
0.74999999999999289
210
0
220
-0
230
1
0
CIRCLE
5
145
100
AcDbEntity
8
0
100
AcDbCircle
10
-29.286276873572142
20
-169.95021431931042
30
0
40
0.625
210
0
220
-0
230
1
0
CIRCLE
5
146
100
AcDbEntity
8
0
100
AcDbCircle
10
-147.70000000000005
20
-83.25
30
0
40
0.74999999999999289
210
0
220
-0
230
1
0
CIRCLE
5
147
100
AcDbEntity
8
0
100
AcDbCircle
10
-272.70000000000005
20
-43.25
30
0
40
0.74999999999999289
210
0
220
-0
230
1
0
CIRCLE
5
148
100
AcDbEntity
8
0
100
AcDbCircle
10
-269.40000000000003
20
-83.25
30
0
40
0.74999999999999289
210
0
220
-0
230
1
0
CIRCLE
5
149
100
AcDbEntity
8
0
100
AcDbCircle
10
-75.100000000000009
20
-130.99999999999991
30
0
40
1.25
210
0
220
-0
230
1
0
CIRCLE
5
150
100
AcDbEntity
8
0
100
AcDbCircle
10
-234.24999999999997
20
-16.079999999999991
30
0
40
0.39999999999999147
210
0
220
-0
230
1
0
LWPOLYLINE
5
151
100
AcDbEntity
8
0
100
AcDbPolyline
90
8
70
1
43
0.0
10
-180.55000000000001
20
-11.499999999999988
42
0.41421356237309509
10
-182.54999999999998
20
-9.4999999999999947
10
-205.95000000000002
20
-9.4999999999999964
42
0.41421356237309509
10
-207.95000000000002
20
-11.499999999999993
10
-207.95000000000002
20
-17.000000000000004
42
0.41421356237309509
10
-205.95000000000002
20
-18.999999999999996
10
-182.54999999999998
20
-18.999999999999996
42
0.41421356237309509
10
-180.55000000000001
20
-17.000000000000018
0
CIRCLE
5
152
100
AcDbEntity
8
0
100
AcDbCircle
10
-210.20000000000005
20
-43.25
30
0
40
0.74999999999999289
210
0
220
-0
230
1
0
CIRCLE
5
153
100
AcDbEntity
8
0
100
AcDbCircle
10
-29.647387984689285
20
-166.97202715839722
30
0
40
0.625
210
0
220
-0
230
1
0
CIRCLE
5
154
100
AcDbEntity
8
0
100
AcDbCircle
10
-194.25
20
-24.799999999999997
30
0
40
0.50000000000000711
210
0
220
-0
230
1
0
CIRCLE
5
155
100
AcDbEntity
8
0
100
AcDbCircle
10
-26.759805103464785
20
-157.55598419417353
30
0
40
0.625
210
0
220
-0
230
1
0
CIRCLE
5
156
100
AcDbEntity
8
0
100
AcDbCircle
10
-249.65000000000003
20
-83.25
30
0
40
0.74999999999999289
210
0
220
-0
230
1
0
CIRCLE
5
157
100
AcDbEntity
8
0
100
AcDbCircle
10
-24.593138436780052
20
-175.42510715965437
30
0
40
0.625
210
0
220
-0
230
1
0
CIRCLE
5
158
100
AcDbEntity
8
0
100
AcDbCircle
10
-234.52562676260268
20
-4.9389961030057901
30
0
40
2.1999999999999886
210
0
220
-0
230
1
0
CIRCLE
5
159
100
AcDbEntity
8
0
100
AcDbCircle
10
-154.24999999999997
20
-14.809999999999992
30
0
40
0.39999999999999147
210
0
220
-0
230
1
0
CIRCLE
5
160
100
AcDbEntity
8
0
100
AcDbCircle
10
-127.95000000000003
20
-83.25
30
0
40
0.74999999999999289
210
0
220
-0
230
1
0
CIRCLE
5
161
100
AcDbEntity
8
0
100
AcDbCircle
10
-20.983333333333327
20
-171.96543851725841
30
0
40
0.625
210
0
220
-0
230
1
0
CIRCLE
5
162
100
AcDbEntity
8
0
100
AcDbCircle
10
-137
20
-30.999999999999993
30
0
40
0.99999999999999645
210
0
220
-0
230
1
0
CIRCLE
5
163
100
AcDbEntity
8
0
100
AcDbCircle
10
-226.65000000000006
20
-83.25
30
0
40
0.74999999999999289
210
0
220
-0
230
1
0
CIRCLE
5
164
100
AcDbEntity
8
0
100
AcDbCircle
10
-26.037582881236546
20
-163.51235851600046
30
0
40
0.625
210
0
220
-0
230
1
0
CIRCLE
5
165
100
AcDbEntity
8
0
100
AcDbCircle
10
-206.90000000000003
20
-83.25
30
0
40
0.74999999999999289
210
0
220
-0
230
1
0
LWPOLYLINE
5
166
100
AcDbEntity
8
0
100
AcDbPolyline
90
4
70
1
43
0.0
10
-179.00524538042308
20
-30.898953031464913
42
0.99999999999999989
10
-177.97918495047657
20
-28.079875169190984
10
-179.29475461957685
20
-27.601046968535037
42
0.99999999999999989
10
-180.32081504952339
20
-30.420124830808966
0
CIRCLE
5
167
100
AcDbEntity
8
0
100
AcDbCircle
10
-154.24999999999997
20
-16.079999999999991
30
0
40
0.39999999999999147
210
0
220
-0
230
1
0
CIRCLE
5
168
100
AcDbEntity
8
0
100
AcDbCircle
10
-184.35000000000005
20
-217.95000000000002
30
0
40
1.25
210
0
220
-0
230
1
0
CIRCLE
5
169
100
AcDbEntity
8
0
100
AcDbCircle
10
-24.232027325665495
20
-178.40329432057155
30
0
40
0.625
210
0
220
-0
230
1
0
CIRCLE
5
170
100
AcDbEntity
8
0
100
AcDbCircle
10
-206.64999999999998
20
-219.34999999999988
30
0
40
0.89999999999999858
210
0
220
-0
230
1
0
CIRCLE
5
171
100
AcDbEntity
8
0
100
AcDbCircle
10
-144.40000000000006
20
-43.25
30
0
40
0.74999999999999289
210
0
220
-0
230
1
0
CIRCLE
5
172
100
AcDbEntity
8
0
100
AcDbCircle
10
-203.14999999999998
20
-222.84999999999985
30
0
40
0.89999999999999858
210
0
220
-0
230
1
0
CIRCLE
5
173
100
AcDbEntity
8
0
100
AcDbCircle
10
-203.15000000000001
20
-219.34999999999988
30
0
40
1.6000000000000014
210
0
220
-0
230
1
0
CIRCLE
5
174
100
AcDbEntity
8
0
100
AcDbCircle
10
-19.899999999999999
20
-180.89999999999998
30
0
40
0.625
210
0
220
-0
230
1
0
CIRCLE
5
175
100
AcDbEntity
8
0
100
AcDbCircle
10
-104.90000000000006
20
-43.25
30
0
40
0.74999999999999289
210
0
220
-0
230
1
0
CIRCLE
5
176
100
AcDbEntity
8
0
100
AcDbCircle
10
-187.15000000000003
20
-43.25
30
0
40
0.74999999999999289
210
0
220
-0
230
1
0
CIRCLE
5
177
100
AcDbEntity
8
0
100
AcDbCircle
10
-39.75
20
-109.75000000000001
30
0
40
2.1999999999999971
210
0
220
-0
230
1
0
CIRCLE
5
178
100
AcDbEntity
8
0
100
AcDbCircle
10
-312.85000000000002
20
-133.99999999999994
30
0
40
0.89999999999999858
210
0
220
-0
230
1
0
CIRCLE
5
179
100
AcDbEntity
8
0
100
AcDbCircle
10
-190.45000000000002
20
-43.25
30
0
40
0.74999999999999289
210
0
220
-0
230
1
0
CIRCLE
5
180
100
AcDbEntity
8
0
100
AcDbCircle
10
-309.14999999999719
20
-172.00000000000003
30
0
40
1.3749999999999929
210
0
220
-0
230
1
0
CIRCLE
5
181
100
AcDbEntity
8
0
100
AcDbCircle
10
-199.65000000000003
20
-219.34999999999988
30
0
40
0.89999999999999858
210
0
220
-0
230
1
0
CIRCLE
5
182
100
AcDbEntity
8
0
100
AcDbCircle
10
-167.40000000000009
20
-43.25
30
0
40
0.74999999999999289
210
0
220
-0
230
1
0
CIRCLE
5
183
100
AcDbEntity
8
0
100
AcDbCircle
10
-23.870916214551798
20
-181.38148148148147
30
0
40
0.625
210
0
220
-0
230
1
0
CIRCLE
5
184
100
AcDbEntity
8
0
100
AcDbCircle
10
-88.450000000000017
20
-43.25
30
0
40
0.74999999999999289
210
0
220
-0
230
1
0
CIRCLE
5
185
100
AcDbEntity
8
0
100
AcDbCircle
10
-312.20000000000005
20
-43.25
30
0
40
0.74999999999999289
210
0
220
-0
230
1
0
CIRCLE
5
186
100
AcDbEntity
8
0
100
AcDbCircle
10
-4.6000000000000023
20
-207.19999999999999
30
0
40
2.1999999999999997
210
0
220
-0
230
1
0
CIRCLE
5
187
100
AcDbEntity
8
0
100
AcDbCircle
10
-229.95000000000005
20
-43.25
30
0
40
0.74999999999999289
210
0
220
-0
230
1
0
CIRCLE
5
188
100
AcDbEntity
8
0
100
AcDbCircle
10
-233.55000000000004
20
-217.95000000000002
30
0
40
2.1999999999999886
210
0
220
-0
230
1
0
CIRCLE
5
189
100
AcDbEntity
8
0
100
AcDbCircle
10
-52.5
20
-81.25
30
0
40
0.75000000000000178
210
0
220
-0
230
1
0
CIRCLE
5
190
100
AcDbEntity
8
0
100
AcDbCircle
10
-233.20000000000005
20
-98.25
30
0
40
0.74999999999999289
210
0
220
-0
230
1
0
CIRCLE
5
191
100
AcDbEntity
8
0
100
AcDbCircle
10
-180.99999999999997
20
-182.25
30
0
40
1.9000000000000128
210
0
220
-0
230
1
0
CIRCLE
5
192
100
AcDbEntity
8
0
100
AcDbCircle
10
-233.20000000000005
20
-103.25
30
0
40
0.74999999999999289
210
0
220
-0
230
1
0
CIRCLE
5
193
100
AcDbEntity
8
0
100
AcDbCircle
10
-150.95000000000002
20
-98.25
30
0
40
0.74999999999999289
210
0
220
-0
230
1
0
CIRCLE
5
194
100
AcDbEntity
8
0
100
AcDbCircle
10
-85.150000000000063
20
-43.25
30
0
40
0.74999999999999289
210
0
220
-0
230
1
0
CIRCLE
5
195
100
AcDbEntity
8
0
100
AcDbCircle
10
-210.20000000000005
20
-83.25
30
0
40
0.74999999999999289
210
0
220
-0
230
1
0
CIRCLE
5
196
100
AcDbEntity
8
0
100
AcDbCircle
10
-124.65000000000002
20
-83.25
30
0
40
0.74999999999999289
210
0
220
-0
230
1
0
CIRCLE
5
197
100
AcDbEntity
8
0
100
AcDbCircle
10
-252.95000000000002
20
-83.25
30
0
40
0.74999999999999289
210
0
220
-0
230
1
0
CIRCLE
5
198
100
AcDbEntity
8
0
100
AcDbCircle
10
-203.15000000000001
20
-215.84999999999991
30
0
40
0.89999999999999858
210
0
220
-0
230
1
0
CIRCLE
5
199
100
AcDbEntity
8
0
100
AcDbCircle
10
-108.20000000000002
20
-83.25
30
0
40
0.74999999999999289
210
0
220
-0
230
1
0
CIRCLE
5
200
100
AcDbEntity
8
0
100
AcDbCircle
10
-170.69999999999999
20
-83.25
30
0
40
0.74999999999999289
210
0
220
-0
230
1
0
CIRCLE
5
201
100
AcDbEntity
8
0
100
AcDbCircle
10
-308.89999999999998
20
-83.25
30
0
40
0.74999999999999289
210
0
220
-0
230
1
0
CIRCLE
5
202
100
AcDbEntity
8
0
100
AcDbCircle
10
-96.599999999999994
20
-19.29999999999999
30
0
40
2.2000000000000064
210
0
220
-0
230
1
0
CIRCLE
5
203
100
AcDbEntity
8
0
100
AcDbCircle
10
-168.85000000000002
20
-217.95000000000002
30
0
40
2.1999999999999886
210
0
220
-0
230
1
0
CIRCLE
5
204
100
AcDbEntity
8
0
100
AcDbCircle
10
-138.09999999999999
20
-133.99999999999994
30
0
40
0.89999999999999858
210
0
220
-0
230
1
0
CIRCLE
5
205
100
AcDbEntity
8
0
100
AcDbCircle
10
-308.90000000000009
20
-43.25
30
0
40
0.74999999999999289
210
0
220
-0
230
1
0
CIRCLE
5
206
100
AcDbEntity
8
0
100
AcDbCircle
10
-176.15000000000003
20
-8.7999999999999918
30
0
40
1.7500000000000071
210
0
220
-0
230
1
0
CIRCLE
5
207
100
AcDbEntity
8
0
100
AcDbCircle
10
-198.65000000000003
20
-34.25
30
0
40
1.7500000000000071
210
0
220
-0
230
1
0
CIRCLE
5
208
100
AcDbEntity
8
0
100
AcDbCircle
10
-154.5
20
-4.9999999999999059
30
0
40
2.2000000000000064
210
0
220
-0
230
1
0
CIRCLE
5
209
100
AcDbEntity
8
0
100
AcDbCircle
10
-167.40000000000003
20
-83.25
30
0
40
0.74999999999999289
210
0
220
-0
230
1
0
CIRCLE
5
210
100
AcDbEntity
8
0
100
AcDbCircle
10
-23.149999999999999
20
-154.09631555177532
30
0
40
0.625
210
0
220
-0
230
1
0
CIRCLE
5
211
100
AcDbEntity
8
0
100
AcDbCircle
10
-28.202943540219863
20
-178.88477580205699
30
0
40
0.625
210
0
220
-0
230
1
0
CIRCLE
5
212
100
AcDbEntity
8
0
100
AcDbCircle
10
-31.091832429128871
20
-155.05927851498359
30
0
40
0.625
210
0
220
-0
230
1
0
CIRCLE
5
213
100
AcDbEntity
8
0
100
AcDbCircle
10
-22.788888888888891
20
-157.0745027126892
30
0
40
0.625
210
0
220
-0
230
1
0
LWPOLYLINE
5
214
100
AcDbEntity
8
0
100
AcDbPolyline
90
4
70
1
43
0.0
10
-85.536826833284678
20
-27.912091203277175
42
0.99999999999999989
10
-88.345323809657046
20
-25.06387338780463
10
-88.879364650213773
20
-25.590466571028227
42
0.99999998946328772
10
-86.070867673841477
20
-28.438684386500537
0
CIRCLE
5
215
100
AcDbEntity
8
0
100
AcDbCircle
10
-252.95000000000002
20
-43.25
30
0
40
0.74999999999999289
210
0
220
-0
230
1
0
CIRCLE
5
216
100
AcDbEntity
8
0
100
AcDbCircle
10
-154.24999999999997
20
-13.539999999999992
30
0
40
0.39999999999999147
210
0
220
-0
230
1
0
CIRCLE
5
217
100
AcDbEntity
8
0
100
AcDbCircle
10
-21.344444444444438
20
-168.98725135634461
30
0
40
0.625
210
0
220
-0
230
1
0
CIRCLE
5
218
100
AcDbEntity
8
0
100
AcDbCircle
10
-218.85000000000005
20
-217.95000000000002
30
0
40
1.25
210
0
220
-0
230
1
0
LWPOLYLINE
5
219
100
AcDbEntity
8
0
100
AcDbPolyline
90
8
70
1
43
0.0
10
-30.934254445403898
20
-145.9742540691567
10
-25.474244650395367
20
-145.31221703211966
42
-0.41421356237309537
10
-24.91769493839093
20
-145.74839637375365
10
-24.436213456909485
20
-149.71931258830512
42
-0.41421356237308993
10
-24.872392798543284
20
-150.27586230030929
10
-30.332402593552111
20
-150.93789933734632
42
-0.41421356237309276
10
-30.888952305556153
20
-150.50171999571265
10
-31.370433787037658
20
-146.53080378116084
42
-0.41421356237311346
0
CIRCLE
5
220
100
AcDbEntity
8
0
100
AcDbCircle
10
-22.066666666666666
20
-163.03087703451689
30
0
40
0.625
210
0
220
-0
230
1
0
CIRCLE
5
221
100
AcDbEntity
8
0
100
AcDbCircle
10
-275.00000409781933
20
-34.000000506639481
30
0
40
1.25
210
0
220
-0
230
1
0
CIRCLE
5
222
100
AcDbEntity
8
0
100
AcDbCircle
10
-30.730721318040693
20
-158.03746567565787
30
0
40
0.625
210
0
220
-0
230
1
0
CIRCLE
5
223
100
AcDbEntity
8
0
100
AcDbCircle
10
-154.60000000000002
20
-132.89999999999998
30
0
40
0.99999999999999645
210
0
220
-0
230
1
0
CIRCLE
5
224
100
AcDbEntity
8
0
100
AcDbCircle
10
-27.120916214564431
20
-154.57779703337943
30
0
40
0.625
210
0
220
-0
230
1
0
CIRCLE
5
225
100
AcDbEntity
8
0
100
AcDbCircle
10
-234.24999999999997
20
-13.539999999999992
30
0
40
0.39999999999999147
210
0
220
-0
230
1
0
CIRCLE
5
226
100
AcDbEntity
8
0
100
AcDbCircle
10
-28.564054651337891
20
-175.90658864113652
30
0
40
0.625
210
0
220
-0
230
1
0
CIRCLE
5
227
100
AcDbEntity
8
0
100
AcDbCircle
10
-25.315360659008302
20
-169.46873283782747
30
0
40
0.625
210
0
220
-0
230
1
0
CIRCLE
5
228
100
AcDbEntity
8
0
100
AcDbCircle
10
-266.31570593305463
20
-197.26253967475489
30
0
40
1.0000000000000142
210
0
220
-0
230
1
0
CIRCLE
5
229
100
AcDbEntity
8
0
100
AcDbCircle
10
-234.24999999999997
20
-14.809999999999992
30
0
40
0.39999999999999147
210
0
220
-0
230
1
0
LWPOLYLINE
5
230
100
AcDbEntity
8
0
100
AcDbPolyline
90
4
70
1
43
0.0
10
-81.66422025850126
20
-30.272794132877788
42
0.99999999999999989
10
-83.770592991354661
20
-28.136630770691436
10
-84.660661058949373
20
-29.014286076063659
42
0.99999999999999989
10
-82.554288326095971
20
-31.150449438250185
0
CIRCLE
5
231
100
AcDbEntity
8
0
100
AcDbCircle
10
-249.65000000000003
20
-43.25
30
0
40
0.74999999999999289
210
0
220
-0
230
1
0
CIRCLE
5
232
100
AcDbEntity
8
0
100
AcDbCircle
10
-28.92516576245502
20
-172.92840148022347
30
0
40
0.625
210
0
220
-0
230
1
0
CIRCLE
5
233
100
AcDbEntity
8
0
100
AcDbCircle
10
-26.398693992350989
20
-160.5341713550844
30
0
40
0.625
210
0
220
-0
230
1
0
CIRCLE
5
234
100
AcDbEntity
8
0
100
AcDbCircle
10
-24.954249547894186
20
-172.44691999874095
30
0
40
0.625
210
0
220
-0
230
1
0
CIRCLE
5
235
100
AcDbEntity
8
0
100
AcDbCircle
10
-30.008499095806428
20
-163.99383999748403
30
0
40
0.625
210
0
220
-0
230
1
0
CIRCLE
5
236
100
AcDbEntity
8
0
100
AcDbCircle
10
-59
20
-63.5
30
0
40
1.25
210
0
220
-0
230
1
0
LWPOLYLINE
5
237
100
AcDbEntity
8
0
100
AcDbPolyline
90
8
70
1
43
0.0
10
-26.119439630535318
20
-185.68341621454678
10
-20.659429835605316
20
-185.02137917751952
42
-0.41421356237309537
10
-20.102880123601693
20
-185.45755851915288
10
-19.621398642160841
20
-189.42847473336926
42
-0.41421356237309515
10
-20.057577984089892
20
-189.98502444575013
10
-25.517587778762678
20
-190.64706148274641
42
-0.41421356237308649
10
-26.074137490766802
20
-190.21088214111268
10
-26.555618972238705
20
-186.23996592663974
42
-0.41421356237309509
0
CIRCLE
5
238
100
AcDbEntity
8
0
100
AcDbCircle
10
-47.5
20
-81.25
30
0
40
0.75000000000000178
210
0
220
-0
230
1
0
LWPOLYLINE
5
239
100
AcDbEntity
8
0
100
AcDbPolyline
90
4
70
1
43
0.0
10
-250.28884042466331
20
-16.408455930726621
42
0.99999998946328772
10
-249.94154406931267
20
-14.438840424607367
10
-251.91115957533714
20
-14.09154406927334
42
0.99999999999999989
10
-252.2584559306878
20
-16.061159575392708
0
CIRCLE
5
240
100
AcDbEntity
8
0
100
AcDbCircle
10
-20.261111111111106
20
-177.9218128390861
30
0
40
0.625
210
0
220
-0
230
1
0
CIRCLE
5
241
100
AcDbEntity
8
0
100
AcDbCircle
10
-30.369610206924193
20
-161.01565283656581
30
0
40
0.625
210
0
220
-0
230
1
0
ARC
5
242
100
AcDbEntity
8
0
100
AcDbCircle
10
-42.245119774121207
20
-203.80642839197125
30
0
40
10.000000001774779
210
0
220
0
230
1
100
AcDbArc
50
230.4136713079773
51
282.60137120204405
0
ARC
5
243
100
AcDbEntity
8
0
100
AcDbCircle
10
-36.300000000000011
20
-230.39999999999998
30
0
40
17.250000000161169
210
0
220
-0
230
1
100
AcDbArc
50
68.05395872314314
51
102.60164350372111
0
LINE
5
244
100
AcDbEntity
8
0
100
AcDbLine
10
-29.853101520452782
20
-214.40000000000089
30
0
11
-4.999999999994853
21
-214.39999999999998
31
0
0
ARC
5
245
100
AcDbEntity
8
0
100
AcDbCircle
10
-4.9999999999948521
20
-209.40000000000512
30
0
40
4.9999999999948486
210
0
220
0
230
1
100
AcDbArc
50
-90
51
0
0
LINE
5
246
100
AcDbEntity
8
0
100
AcDbLine
10
-3.3306690738754696e-15
20
-209.40000000000512
30
0
11
0
21
-192.69999999999999
31
0
0
ARC
5
247
100
AcDbEntity
8
0
100
AcDbCircle
10
-10.446428571428468
20
-192.69999999999999
30
0
40
10.446428571428468
210
0
220
-0
230
1
100
AcDbArc
50
0
51
41.451117731172211
0
ARC
5
248
100
AcDbEntity
8
0
100
AcDbCircle
10
10.500000000000069
20
-174.20000000000002
30
0
40
17.500000000000046
210
0
220
0
230
1
100
AcDbArc
50
162.36382185031204
51
221.45111773109056
0
ARC
5
249
100
AcDbEntity
8
0
100
AcDbCircle
10
-16.044521749496088
20
-165.76113043737399
30
0
40
10.353656032996597
210
-0
220
0
230
1
100
AcDbArc
50
-17.636178149687257
51
14.036243467926274
0
LINE
5
250
100
AcDbEntity
8
0
100
AcDbLine
10
-5.9999999999999662
20
-163.25
30
0
11
-15
21
-127.25000000000001
31
0
0
ARC
5
251
100
AcDbEntity
8
0
100
AcDbCircle
10
-23.856224358004049
20
-129.46405608950104
30
0
40
9.128787118054662
210
0
220
-0
230
1
100
AcDbArc
50
14.036243467926564
51
77.04832225536417
0
ARC
5
252
100
AcDbEntity
8
0
100
AcDbCircle
10
-18.000000000000036
20
-104.00000000000009
30
0
40
17.000000000000028
210
0
220
0
230
1
100
AcDbArc
50
136.54303665109592
51
257.04832225538132
0
ARC
5
253
100
AcDbEntity
8
0
100
AcDbCircle
10
-38.726023454063203
20
-84.361304505155047
30
0
40
11.552520185749312
210
-0
220
0
230
1
100
AcDbArc
50
-43.456963348903763
51
44.597681849069033
0
LINE
5
254
100
AcDbEntity
8
0
100
AcDbLine
10
-30.500000000000025
20
-76.250000000000043
30
0
11
-54.208232069593159
21
-52.206460155712165
31
0
0
ARC
5
255
100
AcDbEntity
8
0
100
AcDbCircle
10
-46.553386270048087
20
-36.469454856571311
30
0
40
17.500000000000011
210
0
220
0
230
1
100
AcDbArc
50
205.13473090275389
51
244.06063279538392
0
LINE
5
256
100
AcDbEntity
8
0
100
AcDbLine
10
-62.396337455003909
20
-43.902549619259815
30
0
11
-90.600000000000009
21
-15.299999999999994
31
0
0
ARC
5
257
100
AcDbEntity
8
0
100
AcDbCircle
10
-97.83858684920709
20
-22.437638550243562
30
0
40
10.165777080353319
210
0
220
-0
230
1
100
AcDbArc
50
44.597681849068998
51
123.0274441739283
0
ARC
5
258
100
AcDbEntity
8
0
100
AcDbCircle
10
-112.09999999999997
20
-0.49999999999986416
30
0
40
16.000000000000117
210
0
220
0
230
1
100
AcDbArc
50
213.21396115723414
51
303.02744417392807
0
ARC
5
259
100
AcDbEntity
8
0
100
AcDbCircle
10
-133.375
20
-14.429374999999959
30
0
40
9.4293749999999612
210
0
220
-0
230
1
100
AcDbArc
50
33.213961157234124
51
90
0
LINE
5
260
100
AcDbEntity
8
0
100
AcDbLine
10
-133.375
20
-4.9999999999999964
30
0
11
-138.50893125268118
21
-4.9999999999999805
31
0
0
ARC
5
261
100
AcDbEntity
8
0
100
AcDbCircle
10
-138.50893125268124
20
6.8319238574227796e-13
30
0
40
5.0000000000006626
210
0
220
0
230
1
100
AcDbArc
50
250.34617594194711
51
270.00000000000068
0
LINE
5
262
100
AcDbEntity
8
0
100
AcDbLine
10
-140.19061323767221
20
-4.7087095579741387
30
0
11
-152.55938676232779
21
-0.29129044202580834
31
0
0
ARC
5
263
100
AcDbEntity
8
0
100
AcDbCircle
10
-154.24106874731834
20
-4.9999999999994253
30
0
40
4.9999999999993854
210
0
220
-0
230
1
100
AcDbArc
50
70.346175941947024
51
89.999999999999673
0
LINE
5
264
100
AcDbEntity
8
0
100
AcDbLine
10
-154.24106874731831
20
-3.9968028886505635e-14
30
0
11
-234.50000000000003
21
9.4368957093138306e-14
31
0
0
ARC
5
265
100
AcDbEntity
8
0
100
AcDbCircle
10
-234.52562676260268
20
-4.9389961030057901
30
0
40
4.9390625868143045
210
0
220
-0
230
1
100
AcDbArc
50
89.702714451955543
51
135.87028154723964
0
LINE
5
266
100
AcDbEntity
8
0
100
AcDbLine
10
-238.07071421427145
20
-1.4999999999999425
30
0
11
-256.41195763250562
21
-7.6130603496047611
31
0
0
ARC
5
267
100
AcDbEntity
8
0
100
AcDbCircle
10
-253.25000000000023
20
-17.099999999999969
30
0
40
9.9999999999999858
210
0
220
0
230
1
100
AcDbArc
50
108.43301602497283
51
157.38013505198444
0
LINE
5
268
100
AcDbEntity
8
0
100
AcDbLine
10
-301.65000000000003
20
-37.75
30
0
11
-317.25
21
-37.75
31
0
0
ARC
5
269
100
AcDbEntity
8
0
100
AcDbCircle
10
-317.25
20
-47.75
30
0
40
10.000000000000004
210
0
220
-0
230
1
100
AcDbArc
50
90
51
180
0
LINE
5
270
100
AcDbEntity
8
0
100
AcDbLine
10
-327.25
20
-47.75
30
0
11
-327.24999999999994
21
-135.28532010735535
31
0
0
ARC
5
271
100
AcDbEntity
8
0
100
AcDbCircle
10
-319.24999999999994
20
-135.28532010735537
30
0
40
8.0000000000000071
210
0
220
0
230
1
100
AcDbArc
50
180
51
220.66789874243159
0
LINE
5
272
100
AcDbEntity
8
0
100
AcDbLine
10
-325.31799656064504
20
-140.49870842398775
30
0
11
-316.83850816845569
21
-150.36820274801215
31
0
0
ARC
5
273
100
AcDbEntity
8
0
100
AcDbCircle
10
-331.25
20
-162.75
30
0
40
19.000000000000036
210
-0
220
0
230
1
100
AcDbArc
50
-25.007833234667562
51
40.667898742375506
0
ARC
5
274
100
AcDbEntity
8
0
100
AcDbCircle
10
-309.49999999999329
20
-172.89581194384544
30
0
40
5.0000000000035012
210
0
220
0
230
1
100
AcDbArc
50
154.99216676534363
51
180
0
LINE
5
275
100
AcDbEntity
8
0
100
AcDbLine
10
-314.49999999999682
20
-172.89581194384553
30
0
11
-314.49999999999682
21
-194.25000000000011
31
0
0
ARC
5
276
100
AcDbEntity
8
0
100
AcDbCircle
10
-310.49999999999682
20
-194.25000000000006
30
0
40
3.9999999999999858
210
0
220
0
230
1
100
AcDbArc
50
180
51
270
0
LINE
5
277
100
AcDbEntity
8
0
100
AcDbLine
10
-310.49999999999682
20
-198.25000000000003
30
0
11
-276.88256777732585
21
-198.25000000000006
31
0
0
LINE
5
278
100
AcDbEntity
8
0
100
AcDbLine
10
-233.38248548806365
20
-225.25000000000003
30
0
11
-175.38256777732533
21
-225.25000000000003
31
0
0
ARC
5
279
100
AcDbEntity
8
0
100
AcDbCircle
10
-175.38256777732533
20
-220.24999999999881
30
0
40
5.0000000000012079
210
-0
220
0
230
1
100
AcDbArc
50
270
51
284.42077312751115
0
LINE
5
280
100
AcDbEntity
8
0
100
AcDbLine
10
-174.13736257827193
20
-225.09246466298421
30
0
11
-166.910001093913
21
-223.23400028129197
31
0
0
ARC
5
281
100
AcDbEntity
8
0
100
AcDbCircle
10
-168.155206292966
20
-218.39153561830855
30
0
40
4.9999999999991642
210
-0
220
0
230
1
100
AcDbArc
50
284.42077312751235
51
305.70669140060716
0
LINE
5
282
100
AcDbEntity
8
0
100
AcDbLine
10
-165.2370260522033
20
-222.45161247502122
30
0
11
-158.37624586451173
21
-217.52042671511748
31
0
0
ARC
5
283
100
AcDbEntity
8
0
100
AcDbCircle
10
-155.45806562371763
20
-221.58050357187415
30
0
40
5.0000000000532152
210
0
220
0
230
1
100
AcDbArc
50
115.11777501315696
51
125.70669140060517
0
LINE
5
284
100
AcDbEntity
8
0
100
AcDbLine
10
-157.5804673197589
20
-217.05331779689502
30
0
11
-125.06258442277328
21
-201.80852484077201
31
0
0
ARC
5
285
100
AcDbEntity
8
0
100
AcDbCircle
10
-94.500000000000028
20
-267.00000000000017
30
0
40
72.000000000245919
210
0
220
-0
230
1
100
AcDbArc
50
50.412442123831333
51
115.11777501315696
0
LINE
5
286
100
AcDbEntity
8
0
100
AcDbLine
10
-262.4807692307711
20
-13.253846153850137
30
0
11
-262.80769230768936
21
-14.038461538454722
31
0
0
ARC
5
287
100
AcDbEntity
8
0
100
AcDbCircle
10
-278.49999999999983
20
-7.5000000000001137
30
0
40
16.999999999999901
210
0
220
0
230
1
100
AcDbArc
50
267.28759998517421
51
337.38013505198472
0
LINE
5
288
100
AcDbEntity
8
0
100
AcDbLine
10
-279.30448471741704
20
-24.480954164576346
30
0
11
-280.7767736956373
21
-24.411203432602122
31
0
0
ARC
5
289
100
AcDbEntity
8
0
100
AcDbCircle
10
-281.25000000000028
20
-34.399999999999849
30
0
40
9.9999999999998899
210
0
220
-0
230
1
100
AcDbArc
50
87.28759998517468
51
140.71236113967927
0
LINE
5
290
100
AcDbEntity
8
0
100
AcDbLine
10
-288.98976838944151
20
-28.067860924000001
30
0
11
-293.91023161055875
21
-34.082139075999976
31
0
0
ARC
5
291
100
AcDbEntity
8
0
100
AcDbCircle
10
-301.64999999999992
20
-27.750000000000171
30
0
40
9.9999999999998259
210
0
220
0
230
1
100
AcDbArc
50
269.99999999999932
51
320.71236113967922
0
ARC
5
292
100
AcDbEntity
8
0
100
AcDbCircle
10
-276.75108347766383
20
-208.25024690739158
30
0
40
10.001111254748229
210
0
220
-0
230
1
100
AcDbArc
50
12.837573460474896
51
90.753287538379467
0
LINE
5
293
100
AcDbEntity
8
0
100
AcDbLine
10
-266.99996142570353
20
-206.02812066038734
30
0
11
-266.5000385742897
21
-208.22187933961274
31
0
0
ARC
5
294
100
AcDbEntity
8
0
100
AcDbCircle
10
-256.74999183320659
20
-205.9999932805041
30
0
40
10.000009455643884
210
0
220
0
230
1
100
AcDbArc
50
192.83760060133076
51
246.05624216052792
0
SPLINE
5
295
100
AcDbEntity
8
0
100
AcDbSpline
70
4
71
5
72
16
73
10
74
0
42
0.000000001
43
0.0000000001
44
0.0000000001
40
0
40
0
40
0
40
0
40
0
40
0
40
0.20000000000000001
40
0.40000000000000002
40
0.60000000000000009
40
0.80000000000000004
40
1
40
1
40
1
40
1
40
1
40
1
41
1
41
1
41
1
41
1
41
1
41
1
41
1
41
1
41
1
41
1
10
-233.38248548806365
20
-225.25000000000003
30
0
10
-235.42092531067172
20
-224.67283068714963
30
0
10
-239.13943679045715
20
-223.59853943481934
30
0
10
-243.64314623280427
20
-222.22700045074322
30
0
10
-247.86517247076699
20
-220.7874860675193
30
0
10
-251.65206570255296
20
-219.2471762113577
30
0
10
-254.66678406984684
20
-217.88807914325491
30
0
10
-257.45930699215813
20
-216.6305202208986
30
0
10
-259.63897138257823
20
-215.65872970953023
30
0
10
-260.80839268170217
20
-215.13944466808186
30
0
0
ENDSEC
0
SECTION
2
OBJECTS
0
DICTIONARY
5
C
100
AcDbDictionary
3
ACAD_GROUP
350
D
3
ACAD_MLINESTYLE
350
17
0
DICTIONARY
5
D
100
AcDbDictionary
0
DICTIONARY
5
1A
330
C
100
AcDbDictionary
0
DICTIONARY
5
17
100
AcDbDictionary
0
ENDSEC
0
EOF
